<svg width="547" height="600" xmlns="http://www.w3.org/2000/svg">

 <g>
  <title>Layer 1</title>
  <g>
   <path fill="#009944" d="m303.104,59.392l61.44,0l0,61.44l-61.44,0l0,-61.44z"/>
   <path fill="#009944" d="m362.496,0l61.44,0l0,61.44l-61.44,0l0,-61.44zm-241.664,0l61.44,0l0,61.44l-61.44,0l0,-61.44zm122.88,59.392l61.44,0l0,61.44l-61.44,0l0,-61.44zm-61.44,0l61.44,0l0,61.44l-61.44,0l0,-61.44z"/>
   <path fill="#009944" d="m243.712,0l61.44,0l0,61.44l-61.44,0l0,-61.44z"/>
   <path fill="#E60012" d="m182.25152,181.9648l0,-61.44l61.44,0l0,61.44l-61.44,0z"/>
   <path fill="#E60012" d="m121.52832,182.6816l0,-61.44l61.44,0l0,61.44l-61.44,0zm122.18368,-61.8496l61.44,0l0,61.44l-61.44,0l0,-61.44z"/>
   <path fill="#E60012" d="m303.104,120.832l61.44,0l0,61.44l-61.44,0l0,-61.44z"/>
   <path fill="#E60012" d="m364.544,120.832l61.44,0l0,61.44l-61.44,0l0,-61.44zm-364.544,182.272l61.44,0l0,61.44l-61.44,0l0,-61.44zm0,-61.44l61.44,0l0,61.44l-61.44,0l0,-61.44zm61.44,-59.392l61.44,0l0,61.44l-61.44,0l0,-61.44z"/>
   <path fill="#E60012" d="m120.832,182.272l61.44,0l0,61.44l-61.44,0l0,-61.44z"/>
   <path fill="#E60012" d="m61.44,241.664l61.44,0l0,61.44l-61.44,0l0,-61.44z"/>
   <path fill="#E60012" d="m120.832,241.664l61.44,0l0,61.44l-61.44,0l0,-61.44zm61.44,-59.392l61.44,0l0,61.44l-61.44,0l0,-61.44zm61.44,0l61.44,0l0,61.44l-61.44,0l0,-61.44z"/>
   <path fill="#E60012" d="m182.272,241.664l61.44,0l0,61.44l-61.44,0l0,-61.44zm61.44,0l61.44,0l0,61.44l-61.44,0l0,-61.44z"/>
   <path fill="#E60012" d="m303.104,182.272l61.44,0l0,61.44l-61.44,0l0,-61.44z"/>
   <path fill="#E60012" d="m364.544,182.272l61.44,0l0,61.44l-61.44,0l0,-61.44z"/>
   <path fill="#E60012" d="m303.104,241.664l61.44,0l0,61.44l-61.44,0l0,-61.44z"/>
   <path fill="#E60012" d="m364.544,241.664l61.44,0l0,61.44l-61.44,0l0,-61.44zm-364.544,122.88l61.44,0l0,61.44l-61.44,0l0,-61.44z"/>
   <path fill="#E60012" d="m0,423.936l61.44,0l0,61.44l-61.44,0l0,-61.44zm61.44,-120.832l61.44,0l0,61.44l-61.44,0l0,-61.44z"/>
   <path fill="#E60012" d="m120.832,303.104l61.44,0l0,61.44l-61.44,0l0,-61.44zm-59.392,61.44l61.44,0l0,61.44l-61.44,0l0,-61.44z"/>
   <path fill="#E60012" d="m120.832,364.544l61.44,0l0,61.44l-61.44,0l0,-61.44zm61.44,-61.44l61.44,0l0,61.44l-61.44,0l0,-61.44zm61.44,0l61.44,0l0,61.44l-61.44,0l0,-61.44zm-61.44,61.44l61.44,0l0,61.44l-61.44,0l0,-61.44zm61.44,0l61.44,0l0,61.44l-61.44,0l0,-61.44z"/>
   <path fill="#E60012" d="m303.104,303.104l61.44,0l0,61.44l-61.44,0l0,-61.44z"/>
   <path fill="#E60012" d="m364.544,303.104l61.44,0l0,61.44l-61.44,0l0,-61.44zm-61.44,61.44l61.44,0l0,61.44l-61.44,0l0,-61.44z"/>
   <path fill="#E60012" d="m364.544,364.544l61.44,0l0,61.44l-61.44,0l0,-61.44zm61.44,-182.272l61.44,0l0,61.44l-61.44,0l0,-61.44z"/>
   <path fill="#E60012" d="m425.984,241.664l61.44,0l0,61.44l-61.44,0l0,-61.44zm59.392,61.44l61.44,0l0,61.44l-61.44,0l0,-61.44z"/>
   <path fill="#E60012" d="m485.376,241.664l61.44,0l0,61.44l-61.44,0l0,-61.44zm-59.392,61.44l61.44,0l0,61.44l-61.44,0l0,-61.44zm59.392,61.44l61.44,0l0,61.44l-61.44,0l0,-61.44z"/>
   <path fill="#E60012" d="m425.984,364.544l61.44,0l0,61.44l-61.44,0l0,-61.44z"/>
   <path fill="#E60012" d="m485.376,423.936l61.44,0l0,61.44l-61.44,0l0,-61.44zm-423.936,0l61.44,0l0,61.44l-61.44,0l0,-61.44z"/>
   <path fill="#E60012" d="m120.832,423.936l61.44,0l0,61.44l-61.44,0l0,-61.44zm0,61.44l61.44,0l0,61.44l-61.44,0l0,-61.44z"/>
   <path fill="#E60012" d="m61.44,485.376l61.44,0l0,61.44l-61.44,0l0,-61.44zm120.832,-61.44l61.44,0l0,61.44l-61.44,0l0,-61.44zm61.44,0l61.44,0l0,61.44l-61.44,0l0,-61.44zm-61.44,61.44l61.44,0l0,61.44l-61.44,0l0,-61.44zm61.44,0l61.44,0l0,61.44l-61.44,0l0,-61.44z"/>
   <path fill="#E60012" d="m303.104,423.936l61.44,0l0,61.44l-61.44,0l0,-61.44z"/>
   <path fill="#E60012" d="m364.544,423.936l61.44,0l0,61.44l-61.44,0l0,-61.44zm-61.44,61.44l61.44,0l0,61.44l-61.44,0l0,-61.44z"/>
   <path fill="#E60012" d="m364.544,485.376l61.44,0l0,61.44l-61.44,0l0,-61.44zm-243.712,61.44l61.44,0l0,61.44l-61.44,0l0,-61.44zm243.712,0l61.44,0l0,61.44l-61.44,0l0,-61.44zm61.44,-122.88l61.44,0l0,61.44l-61.44,0l0,-61.44zm0,61.44l61.44,0l0,61.44l-61.44,0l0,-61.44zm-243.712,61.44l61.44,0l0,61.44l-61.44,0l0,-61.44zm61.44,0l61.44,0l0,61.44l-61.44,0l0,-61.44z"/>
   <path fill="#E60012" d="m303.104,546.816l61.44,0l0,61.44l-61.44,0l0,-61.44z"/>
  </g>
 </g>
</svg>